<?xml version="1.0" encoding="utf-8"?>
<!-- Generator: Adobe Illustrator 25.1.0, SVG Export Plug-In . SVG Version: 6.00 Build 0)  -->
<svg version="1.1" id="Layer_1" xmlns="http://www.w3.org/2000/svg" xmlns:xlink="http://www.w3.org/1999/xlink" x="0px" y="0px"
	 viewBox="0 0 7.7 8" style="enable-background:new 0 0 7.7 8;" xml:space="preserve">
<style type="text/css">
	.st0{fill:#FFFFFF;}
</style>
<g id="Layer_2_1_">
	<g id="Layer_2-2">
		<path class="st0" d="M1.2,0h5.4c0.6,0,1.2,0.5,1.2,1.2v3.7C7.7,5.5,7.2,6,6.5,6H1.2C0.5,6,0,5.5,0,4.8V1.2C0,0.5,0.5,0,1.2,0z"/>
		<path class="st0" d="M0.6,6.2h6.6c0.3,0,0.6,0.2,0.6,0.6v0.7C7.7,7.8,7.5,8,7.2,8H0.6C0.2,8,0,7.8,0,7.5V6.8
			C0,6.5,0.2,6.2,0.6,6.2z"/>
	</g>
</g>
</svg>
